<svg xmlns="http://www.w3.org/2000/svg" fill="none" viewBox="0 0 15 15">
  <mask id="KHjJaWTnYa" maskUnits="userSpaceOnUse" x="0" y="0" width="15" height="15" fill="#000">
    <path fill="#fff" d="M0 0h15v15H0z"/>
    <path d="M12.533 7.262a5.284 5.284 0 11-10.568 0 5.284 5.284 0 0110.568 0z"/>
    <path d="M7.236 9.922L4.342 7.027a.787.787 0 01.551-1.34.773.773 0 01.551.23L7.236 7.71l4.917-4.913a.774.774 0 011.102 0 .773.773 0 010 1.102l-6.02 6.023z"/>
    <path d="M11.913 6.974a4.705 4.705 0 01-2.61 4.527A4.695 4.695 0 013 9.341a4.702 4.702 0 01-.465-1.783 4.703 4.703 0 014.383-4.996 4.69 4.69 0 012.788.699l1.043-1.183a6.242 6.242 0 10-7.007 10.334 6.236 6.236 0 008.665-1.658 6.243 6.243 0 00.948-4.678c.072.009-1.442.898-1.442.898z"/>
  </mask>
  <path d="M12.533 7.262a5.284 5.284 0 11-10.568 0 5.284 5.284 0 0110.568 0z" fill="#fff"/>
  <path d="M7.236 9.922L4.342 7.027a.787.787 0 01.551-1.34.773.773 0 01.551.23L7.236 7.71l4.917-4.913a.774.774 0 011.102 0 .773.773 0 010 1.102l-6.02 6.023z" fill="#12395D"/>
  <path d="M11.913 6.974a4.705 4.705 0 01-2.61 4.527A4.695 4.695 0 013 9.341a4.702 4.702 0 01-.465-1.783 4.703 4.703 0 014.383-4.996 4.69 4.69 0 012.788.699l1.043-1.183a6.242 6.242 0 10-7.007 10.334 6.236 6.236 0 008.665-1.658 6.243 6.243 0 00.948-4.678c.072.009-1.442.898-1.442.898z" fill="#12395D"/>
  <path d="M7.236 9.922l-.707.707.707.707.707-.707-.707-.707zM4.342 7.027l-.71.704.003.003.707-.707zm0-1.11l.71.705.003-.003-.713-.701zm.253-.17l-.387-.923.387.923zm.597 0l.386-.923-.386.923zm.252.17l-.712.702.005.005.707-.706zM7.236 7.71l-.707.707.706.707.708-.707-.707-.707zm4.917-4.913l.707.707.006-.006-.713-.701zm.252-.171l.387.922-.387-.922zm.299-.06v-1 1zm.299.06l-.387.922.387-.922zm.252.17l-.713.702.006.006.005.005.702-.712zm.17.253l.923-.386-.922.386zm0 .598l.923.386-.922-.386zm-.17.252l-.702-.712-.005.006.707.706zm-1.342 3.075l-.506-.863-.533.313.041.616.998-.066zm-1.154 3.41l-.753-.66.753.66zM9.303 11.5l-.442-.897.442.897zm-1.772.475l-.065-.998.065.998zm-1.825-.243l.324-.946-.324.946zm-3.17-4.175l.998-.058v-.007l-.999.065zm.24-1.818l-.947-.322.946.322zm2.371-2.704l-.442-.897.442.897zm1.771-.474l.065.998h.001l-.066-.998zm2.788.699l-.528.849.718.447.56-.635-.75-.661zm1.043-1.183l.75.662.751-.851-.939-.638-.562.827zM6.07 1.111l.188.982-.188-.982zM2.078 3.736l-.828-.561.828.561zm-.95 2.246l.98.202-.98-.202zm.902 4.696l.835-.55-.835.55zm1.712 1.734l.562-.827h-.001l-.561.827zm2.242.949l-.203.98.203-.98zm2.434.018l.188.982-.188-.982zm2.256-.915l.55.835-.55-.835zm1.733-1.71l.828.562.002-.004-.83-.558zm1.048-3.902l-.997.066.997-.066zm-.1-.776l.118-.993-1.358-.16.258 1.342.982-.189zm-1.822 1.186a4.284 4.284 0 01-4.284 4.284v2a6.284 6.284 0 006.284-6.284h-2zm-4.284 4.284a4.284 4.284 0 01-4.284-4.284h-2a6.284 6.284 0 006.284 6.284v-2zM2.965 7.262a4.284 4.284 0 014.284-4.284v-2A6.284 6.284 0 00.965 7.262h2zm4.284-4.284a4.284 4.284 0 014.284 4.284h2A6.284 6.284 0 007.249.978v2zm.694 6.237L5.05 6.32 3.635 7.734l2.894 2.895 1.414-1.414zM5.052 6.322c.04.04.062.094.062.15h-2c0 .472.186.925.519 1.26l1.419-1.41zm.062.15c0 .056-.022.11-.062.15l-1.42-1.41a1.792 1.792 0 00-.518 1.26h2zm-.059.147a.227.227 0 01-.074.05l-.773-1.845a1.767 1.767 0 00-.578.392L5.055 6.62zm-.074.05a.227.227 0 01-.088.018v-2a1.79 1.79 0 00-.685.137l.773 1.845zm-.088.018a.227.227 0 01-.087-.018l.772-1.845a1.773 1.773 0 00-.685-.137v2zm-.087-.018a.227.227 0 01-.074-.05l1.425-1.403a1.773 1.773 0 00-.579-.392L4.806 6.67zm-.069-.045l1.792 1.793 1.414-1.414-1.791-1.792-1.415 1.413zm3.206 1.793l4.917-4.913-1.414-1.415L6.53 7.003l1.414 1.414zm4.923-4.919a.226.226 0 01-.074.05l-.773-1.844c-.217.09-.414.224-.579.391l1.426 1.403zm-.074.05a.227.227 0 01-.088.018v-2c-.235 0-.468.047-.685.138l.773 1.844zm-.088.018a.227.227 0 01-.088-.018l.773-1.844a1.773 1.773 0 00-.685-.138v2zm-.088-.018a.227.227 0 01-.074-.05l1.426-1.403a1.773 1.773 0 00-.579-.391l-.773 1.844zm-.063-.039a.227.227 0 01-.05-.074l1.845-.772a1.775 1.775 0 00-.391-.578l-1.404 1.424zm-.05-.074a.227.227 0 01-.017-.087h2c0-.235-.047-.468-.138-.685l-1.845.772zm-.017-.087c0-.03.006-.06.017-.087l1.845.772c.091-.217.138-.45.138-.685h-2zm.017-.087a.227.227 0 01.05-.074l1.404 1.425c.167-.165.3-.362.391-.579l-1.845-.772zm.045-.069l-6.02 6.023 1.415 1.414 6.02-6.023-1.415-1.413zM10.915 7.04a3.69 3.69 0 01-.187 1.433l1.894.641c.24-.71.339-1.46.29-2.207l-1.997.133zm-.187 1.433a3.7 3.7 0 01-.722 1.252l1.505 1.318a5.7 5.7 0 001.111-1.929l-1.894-.641zm-.722 1.252c-.32.366-.71.664-1.145.88l.884 1.793a5.698 5.698 0 001.766-1.355l-1.505-1.318zm-1.145.88c-.436.214-.91.341-1.395.373l.13 1.996a5.694 5.694 0 002.15-.576l-.885-1.794zm-1.395.373a3.695 3.695 0 01-1.436-.191l-.648 1.892a5.696 5.696 0 002.214.295l-.13-1.996zm-1.436-.191a3.697 3.697 0 01-1.253-.73l-1.325 1.5a5.7 5.7 0 001.93 1.122l.648-1.892zm-1.253-.73A3.7 3.7 0 013.9 8.904l-1.8.873a5.729 5.729 0 001.35 1.78l1.326-1.5zM3.9 8.904A3.703 3.703 0 013.534 7.5l-1.997.116c.044.75.235 1.485.564 2.161L3.9 8.903zm-.367-1.41a3.702 3.702 0 01.19-1.431l-1.894-.644a5.702 5.702 0 00-.291 2.205l1.995-.13zm.19-1.431a3.7 3.7 0 01.721-1.25l-1.503-1.32a5.7 5.7 0 00-1.112 1.926l1.893.644zm.721-1.25c.32-.366.71-.664 1.145-.879L4.705 2.14c-.67.331-1.27.791-1.764 1.354l1.503 1.319zm1.145-.879c.436-.214.91-.341 1.394-.373l-.13-1.995a5.696 5.696 0 00-2.148.574l.884 1.794zm1.395-.373a3.69 3.69 0 012.194.55l1.056-1.698a5.69 5.69 0 00-3.382-.847l.132 1.995zm3.472.362l1.043-1.182L10 1.417 8.956 2.599l1.5 1.323zm.855-2.671A7.242 7.242 0 005.882.129l.376 1.964a5.242 5.242 0 013.93.813L11.31 1.25zM5.882.129A7.244 7.244 0 001.25 3.175l1.655 1.123a5.244 5.244 0 013.353-2.205L5.882.13zM1.25 3.175A7.243 7.243 0 00.15 5.78l1.958.404c.14-.675.41-1.316.797-1.886L1.25 3.175zM.15 5.78a7.245 7.245 0 00-.02 2.828l1.964-.377a5.245 5.245 0 01.014-2.047L.15 5.78zM.13 8.608c.18.935.54 1.825 1.064 2.62l1.67-1.1a5.244 5.244 0 01-.77-1.897L.13 8.608zm1.064 2.62a7.24 7.24 0 001.987 2.012l1.122-1.656a5.242 5.242 0 01-1.438-1.456l-1.67 1.1zm1.986 2.011a7.21 7.21 0 002.601 1.101l.405-1.958a5.236 5.236 0 01-1.882-.797L3.18 13.239zm2.601 1.101c.931.193 1.891.2 2.825.021l-.376-1.964a5.247 5.247 0 01-2.044-.015l-.405 1.958zm2.825.021a7.236 7.236 0 002.617-1.062l-1.1-1.67a5.235 5.235 0 01-1.893.768l.376 1.964zm2.617-1.062a7.24 7.24 0 002.012-1.983l-1.655-1.123a5.238 5.238 0 01-1.456 1.435l1.1 1.671zm2.014-1.987a7.244 7.244 0 001.216-4.527l-1.995.134a5.244 5.244 0 01-.88 3.277l1.66 1.116zm1.216-4.527a7.348 7.348 0 00-.116-.898l-1.964.378c.042.216.07.434.085.653l1.995-.133zm-1.215.284a.997.997 0 01-.585-1.697c.049-.048.088-.074.073-.064-.01.007-.042.03-.106.07-.12.077-.293.183-.476.294a72.324 72.324 0 01-.674.402l-.047.028-.012.007c-.002 0-.003.001-.003.002h-.001l.506.863.507.862h.001l.003-.003.013-.008.05-.028a95.33 95.33 0 00.691-.413c.186-.113.378-.23.522-.322a5.43 5.43 0 00.202-.136 1.05 1.05 0 00.385-.478 1.003 1.003 0 00-.814-1.365l-.235 1.986z" fill="#fff" mask="url(#KHjJaWTnYa)"/>
</svg>
