<svg xmlns="http://www.w3.org/2000/svg" fill="none" viewBox="0 0 76 78">
  <g filter="url(#5GWlSd7u0a)">
    <path d="M12.728 54.228V42.61L42.61 12.728h25.456L12.728 68.066V54.228z" fill="url(#5GWlSd7u0b)"/>
  </g>
  <path d="M16.26 49.702l1.346 1.347 1.7-1.7.695.696-1.7 1.7 1.374 1.373 2.157-2.156.722.722-3.063 3.063-4.857-4.856 3.063-3.064.719.72-2.157 2.155zm11.04-2.765l-.9.9a.326.326 0 01-.197.104.566.566 0 01-.195-.02l-2.99-.739a.936.936 0 01.081.208l.642 2.798a.997.997 0 01.013.202.268.268 0 01-.087.181l-.843.843-.887-4.111-3.906-.81.9-.9c.063-.062.116-.098.161-.107a.324.324 0 01.161 0l2.886.675a2.024 2.024 0 01-.088-.249l-.58-2.61a.404.404 0 01-.014-.174.269.269 0 01.08-.141l.864-.863.759 3.883 4.14.93zm2.567-4.857a.254.254 0 01.188-.074l.743.03a2.76 2.76 0 01-.168 1.29c-.157.416-.437.826-.84 1.23a3.48 3.48 0 01-1.159.788c-.41.164-.826.238-1.25.222a3.212 3.212 0 01-1.255-.316 4.21 4.21 0 01-1.159-.836 3.908 3.908 0 01-.826-1.175 3.274 3.274 0 01-.296-1.277 3.147 3.147 0 01.249-1.27c.17-.416.433-.802.789-1.158.354-.354.726-.61 1.115-.766.392-.159.778-.24 1.159-.245l.117.722a.372.372 0 010 .141.265.265 0 01-.084.144.329.329 0 01-.13.078 3.967 3.967 0 01-.189.047 4.157 4.157 0 00-.241.053c-.09.023-.185.058-.286.105a1.955 1.955 0 00-.33.188 2.345 2.345 0 00-.365.305 2.11 2.11 0 00-.48.716 1.799 1.799 0 00-.128.8c.015.274.094.554.235.839.139.282.344.558.615.83.273.273.554.477.843.614.29.134.575.208.853.222.277.013.545-.03.803-.131.255-.103.485-.258.691-.464a3.49 3.49 0 00.313-.352 1.957 1.957 0 00.339-.689c.03-.123.047-.255.054-.396a.391.391 0 01.023-.118.225.225 0 01.057-.097zm4.351-3.551l.745.745-2.844 2.845-4.857-4.857.903-.903 4.111 4.111 1.942-1.941zm2.485-2.452a1.67 1.67 0 00.38-.554 1.37 1.37 0 00.104-.595 1.506 1.506 0 00-.168-.598 2.184 2.184 0 00-.426-.58l-2.91-2.91.904-.903 2.909 2.909c.289.288.51.603.662.943.152.336.23.681.235 1.035.004.35-.067.699-.215 1.048-.15.347-.38.676-.692.987a3.213 3.213 0 01-.99.696c-.35.147-.7.22-1.052.218a2.655 2.655 0 01-1.035-.235 3.224 3.224 0 01-.94-.665l-2.909-2.909.904-.903 2.905 2.905c.186.186.378.329.578.43.201.098.403.154.604.168.202.009.4-.026.595-.104.197-.081.383-.209.557-.383zm2.373-8.862c.02.074.026.138.017.192a.27.27 0 01-.08.14.432.432 0 01-.206.105c-.09.018-.194.043-.312.077a2.14 2.14 0 00-.383.155 1.52 1.52 0 00-.413.305c-.126.125-.22.25-.282.376a.972.972 0 00-.114.363.717.717 0 00.053.336.88.88 0 00.198.292.622.622 0 00.38.192 1.16 1.16 0 00.45-.06c.159-.052.327-.124.504-.216s.36-.184.55-.275a4.93 4.93 0 01.582-.245c.197-.072.397-.111.6-.118.202-.009.405.026.609.104.206.076.41.215.611.417.22.219.387.463.504.732.116.264.173.54.171.83a2.215 2.215 0 01-.191.863 2.787 2.787 0 01-.595.836 3.15 3.15 0 01-.504.41c-.179.12-.366.222-.56.305a3.336 3.336 0 01-.588.185c-.2.043-.394.063-.585.06l-.168-.698a.376.376 0 01.01-.165.3.3 0 01.081-.147.447.447 0 01.252-.111c.11-.02.237-.047.383-.08a2.73 2.73 0 00.467-.159c.165-.076.332-.198.5-.366.258-.257.397-.517.417-.78.018-.263-.088-.51-.316-.738a.682.682 0 00-.41-.215 1.043 1.043 0 00-.453.05c-.161.05-.328.122-.5.219-.173.096-.351.191-.535.285a4.991 4.991 0 01-.57.249c-.198.071-.4.11-.605.114a1.615 1.615 0 01-.632-.12 2.088 2.088 0 01-.655-.468 1.899 1.899 0 01-.413-.621 1.918 1.918 0 01-.137-.756c.004-.264.066-.534.184-.81a2.59 2.59 0 01.561-.795c.287-.287.596-.506.927-.659a2.53 2.53 0 01.994-.241l.202.651zm5.981 1.966l-.907.907-4.857-4.857.907-.907 4.857 4.857zm.392-10.106l2.895 6.819-.816.816-6.818-2.895.725-.726a.43.43 0 01.507-.097l4.108 1.817c.134.058.277.129.427.211a9 9 0 01.46.259 9.137 9.137 0 01-.272-.447 4.18 4.18 0 01-.215-.423l-1.824-4.1a.455.455 0 01-.037-.246.43.43 0 01.131-.259l.729-.729zm2.128-.69l1.347 1.346 1.7-1.699.695.695-1.7 1.7 1.374 1.373 2.156-2.156.722.722-3.063 3.064-4.856-4.857 3.063-3.064.718.72-2.156 2.156z" fill="#362A0B"/>
  <defs>
    <linearGradient id="5GWlSd7u0b" x1="52.228" y1="12.728" x2="12.228" y2="67.728" gradientUnits="userSpaceOnUse">
      <stop stop-color="#FDC93F"/>
      <stop offset="1" stop-color="#F8B032"/>
    </linearGradient>
    <filter id="5GWlSd7u0a" x="9.728" y="11.728" width="65.338" height="65.338" filterUnits="userSpaceOnUse" color-interpolation-filters="sRGB">
      <feFlood flood-opacity="0" result="BackgroundImageFix"/>
      <feColorMatrix in="SourceAlpha" values="0 0 0 0 0 0 0 0 0 0 0 0 0 0 0 0 0 0 127 0" result="hardAlpha"/>
      <feOffset dx="2" dy="4"/>
      <feGaussianBlur stdDeviation="2.5"/>
      <feComposite in2="hardAlpha" operator="out"/>
      <feColorMatrix values="0 0 0 0 0 0 0 0 0 0 0 0 0 0 0 0 0 0 0.2 0"/>
      <feBlend in2="BackgroundImageFix" result="effect1_dropShadow_2372_49235"/>
      <feBlend in="SourceGraphic" in2="effect1_dropShadow_2372_49235" result="shape"/>
    </filter>
  </defs>
</svg>
