<svg xmlns="http://www.w3.org/2000/svg" fill="none" viewBox="0 0 26 26">
  <g clip-path="url(#rAXoaXJNvTa)">
    <path d="M31.541 2.018v2H12.998v-2h18.543zm0 4v1.999H12.998v-2h18.543zm0 3.999v2H12.998v-2h18.543zm0 3.999v2H-5.986v-2H31.54zm0 4v1.999H-5.986v-2H31.54zm0 4.003v2H-5.986v-2.005l37.527.005z" fill="#F4F4F5"/>
    <path d="M-6 0h37.528v2H-6V0zm0 23.996h37.528V26H-6v-2.004zm0-4h37.528v2.019H-6v-2.018zm0-3.999h37.528v2H-6v-2zm0-4h37.528v2H-6v-2zM-6 8h37.528v2H-6V8zm0-4h37.528v2H-6V4z" fill="#F90805"/>
    <path d="M-6 .018h19.02v13.998H-6V.018z" fill="#0437A0"/>
    <path d="M11.435.71l.172.556h.56l-.44.34.171.554-.441-.344-.442.344.177-.555-.441-.34h.56l.172-.554h-.048zM-4.42 6.293l.172.555h.556l-.441.34.176.555-.441-.344-.442.344.172-.555-.441-.34h.534l.172-.555h-.017zm1.589 1.376l.168.555h.56l-.441.344.172.55-.441-.344-.442.344.172-.55-.441-.344h.56l.177-.555h-.044zm12.68 0l.172.555h.56l-.44.344.171.55-.441-.344-.442.344.177-.55-.441-.344h.56l.172-.555H9.85zm-3.17 0l.172.555h.56l-.44.344.171.55-.441-.344-.442.344.177-.55-.441-.344h.56l.173-.555h-.05zm-3.17 0l.172.555h.574l-.441.344.172.55-.442-.344-.441.344.176-.55-.441-.344h.56l.173-.555H3.51zm-3.174 0l.176.555h.56l-.44.344.171.55-.441-.344-.442.344.173-.55-.442-.344h.56l.169-.555H.336zm-1.581-1.376l.172.555h.556l-.441.34.172.555-.441-.344-.442.344.172-.555-.441-.34h.56l.177-.555h-.044zm9.51 0l.172.555h.56l-.44.34.171.555-.441-.344-.442.344.177-.555-.441-.34h.56l.172-.555h-.048zm3.17 0l.172.555h.56l-.44.34.171.555-.441-.344-.442.344.177-.555-.441-.34h.56l.172-.555h-.048zm0 2.793l.172.55h.56l-.44.345.171.555-.441-.344-.442.344.177-.555-.441-.344h.56l.172-.55h-.048zm-3.17 0l.172.55h.56l-.44.345.171.555-.441-.344-.442.344.177-.555-.441-.344h.56l.172-.55h-.048zm-9.51 0l.172.55h.556l-.441.345.172.555-.441-.344-.442.344.172-.555-.441-.344h.56l.177-.55h-.044zm-1.585 1.376l.168.555h.56l-.441.34.172.555-.441-.344-.442.344.172-.555-.441-.34h.56l.177-.555h-.044zm12.68 0l.172.555h.56l-.44.34.171.555-.441-.344-.442.344.177-.555-.441-.34h.56l.172-.555H9.85zm-3.17 0l.172.555h.56l-.44.34.171.555-.441-.344-.442.344.177-.555-.441-.34h.56l.173-.555h-.05zm-3.17 0l.172.555h.574l-.441.34.172.555-.442-.344-.441.344.176-.555-.441-.34h.56l.173-.555H3.51zm-3.174 0l.176.555h.56l-.44.34.171.555-.441-.344-.442.344.173-.555-.442-.34h.56l.169-.555H.336zM-4.42 9.085l.172.55h.556l-.441.345.176.555-.441-.344-.442.344.172-.555-.441-.344h.534l.172-.55h-.017zm0 2.789l.172.555h.556l-.441.34.176.554-.441-.344-.442.344.172-.555-.441-.34h.534l.172-.554h-.017zm3.174 0l.172.555h.556l-.441.34.172.554-.441-.344-.442.344.172-.555-.441-.34h.56l.177-.554h-.044zm9.51 0l.172.555h.56l-.44.34.171.554-.441-.344-.442.344.177-.555-.441-.34h.56l.172-.554h-.048zm3.17 0l.172.555h.56l-.44.34.171.554-.441-.344-.442.344.177-.555-.441-.34h.56l.172-.554h-.048zM-2.808 4.898l.168.555h.56l-.441.34.172.554-.441-.344-.442.344.172-.555-.441-.339h.56l.177-.555h-.044zm0-2.793l.168.555h.56l-.441.344.172.55-.441-.344-.442.344.172-.55-.441-.344h.56l.177-.555h-.044zm12.68 0l.172.555h.56l-.44.344.171.55-.441-.344-.441.344.176-.55-.441-.344h.56l.173-.555h-.05zm-3.17 0l.172.555h.56l-.44.344.172.55-.442-.344-.441.344.176-.55-.441-.344h.56l.172-.555h-.048zm-3.17 0l.172.555h.552l-.441.344.172.55-.442-.344-.441.344.176-.55-.441-.344h.56l.173-.555h-.04zm-3.174 0l.176.555h.561l-.442.344.173.55-.442-.344-.441.344.172-.55-.442-.344h.56l.169-.555H.358zm-4.755 1.376l.172.55h.534l-.441.344.176.55-.441-.339-.442.34.172-.55-.441-.345h.534l.172-.55h.005zM9.872 4.857l.172.555h.56l-.44.34.171.554-.441-.344-.441.344.176-.555-.441-.34h.56l.173-.554h-.05zm-3.17 0l.172.555h.56l-.44.34.172.554-.442-.344-.441.344.176-.555-.441-.34h.56l.172-.554h-.048zm-3.17 0l.172.555h.552l-.441.34.172.554-.442-.344-.441.344.176-.555-.441-.34h.56l.173-.554h-.04zm-3.174 0l.176.555h.561l-.442.34.173.554-.442-.344-.441.344.172-.555-.442-.34h.56l.169-.554H.358zm-1.58-1.376l.171.55h.557l-.442.344.172.55-.441-.339-.442.34.172-.55-.441-.345h.56l.177-.55h-.044zm0-2.793l.171.555h.557l-.442.34.172.554-.441-.344-.442.344.172-.555-.441-.34h.56l.177-.554h-.044zm-3.175 0l.172.555h.534l-.441.34.176.554-.441-.344-.442.344.172-.555-.441-.34h.534l.172-.554h.005zM1.947 11.85l.172.555h.556l-.441.34.172.554-.441-.344-.442.344.172-.555-.441-.339h.56l.173-.555h-.04zm0-2.789l.172.55h.556l-.441.345.172.555-.441-.344-.442.344.172-.555-.441-.344h.56l.173-.55h-.04zm0-2.793l.172.555h.556l-.441.34.172.555-.441-.344-.442.344.172-.555-.441-.34h.56l.173-.555h-.04zm0-2.788l.172.55h.556l-.441.344.172.55-.441-.339-.442.34.172-.55-.441-.345h.56l.173-.55h-.04zm0-2.793l.172.555h.556l-.441.34.172.554-.441-.344-.442.344.172-.555-.441-.34h.56l.173-.554h-.04zm3.17 11.163l.172.555h.56l-.44.34.172.554-.442-.344-.441.344.176-.555-.441-.339h.56l.173-.555h-.049zm0-2.789l.172.55h.56l-.44.345.172.555-.442-.344-.441.344.176-.555-.441-.344h.56l.173-.55h-.049zm0-2.793l.172.555h.56l-.44.34.172.555-.442-.344-.441.344.176-.555-.441-.34h.56l.173-.555h-.049zm0-2.788l.172.55h.56l-.44.344.172.55-.442-.339-.441.34.176-.55-.441-.345h.56l.173-.55h-.049zm0-2.793l.172.555h.56l-.44.34.172.554-.442-.344-.441.344.176-.555-.441-.34h.56l.173-.554h-.049zm3.17 2.793l.172.55h.56l-.44.344.171.55-.441-.339-.441.34.176-.55-.441-.345h.56l.173-.55h-.05zm0-2.793l.172.555h.56l-.44.34.171.554-.441-.344-.441.344.176-.555-.441-.34h.56l.173-.554h-.05zm3.17 2.793l.172.55h.56l-.44.344.172.55-.442-.339-.441.34.176-.55-.441-.345h.56l.172-.55h-.048z" fill="#F4F4F5"/>
  </g>
  <path d="M.75.75h24.5v24.5H.75V.75z" stroke="#12395D" stroke-width="1.5"/>
  <defs>
    <clipPath id="rAXoaXJNvTa">
      <path d="M0 0h26v26H0V0z" fill="#fff"/>
    </clipPath>
  </defs>
</svg>
