<svg xmlns="http://www.w3.org/2000/svg" fill="none" viewBox="0 0 31 10">
  <path fill-rule="evenodd" clip-rule="evenodd" d="M10.695 9.703L12.233.166h2.457l-1.537 9.537h-2.458zM22.067.4a6.075 6.075 0 00-2.202-.4c-2.43 0-4.14 1.294-4.154 3.147-.016 1.371 1.22 2.136 2.152 2.591.957.467 1.28.766 1.275 1.184-.006.639-.764.931-1.47.931-.985 0-1.507-.144-2.315-.5l-.316-.152-.344 2.135c.573.266 1.635.496 2.738.509 2.582 0 4.26-1.28 4.28-3.258.008-1.087-.647-1.911-2.065-2.591-.859-.443-1.386-.736-1.38-1.183 0-.397.446-.82 1.408-.82a4.31 4.31 0 011.84.366l.22.109L22.067.4zm3.272 5.922c.204-.548.979-2.666.979-2.666-.015.025.202-.552.326-.91l.166.823s.472 2.276.569 2.753h-2.04zM28.37.176h-1.9c-.589 0-1.03.169-1.288.79l-3.649 8.74h2.581s.421-1.175.517-1.433l3.147.005c.074.332.3 1.428.3 1.428h2.28L28.371.176zM8.634.174L6.228 6.676l-.257-1.322c-.449-1.522-1.844-3.173-3.405-4l2.201 8.34h2.6l3.87-9.52H8.635z" fill="#26337A"/>
  <path fill-rule="evenodd" clip-rule="evenodd" d="M3.995.168H.033L0 .365c3.084.79 5.124 2.697 5.97 4.99L5.11.971C4.96.368 4.53.19 3.995.168z" fill="#EC982D"/>
</svg>
