<svg xmlns="http://www.w3.org/2000/svg" fill="none" viewBox="0 0 26 26">
  <circle cx="17.979" cy="17.98" r="4.5" fill="#FAC515"/>
  <path d="M5.734 21.313l.23-.715-.718-.23-.227.719.715.226zm.72 1.395l-.668.344.667-.344zm3.515 1.13l.344.667-.344-.666zM23.14 9.396l-.617.427.427.616.616-.426-.426-.617zm.28-1.537l.739.135v-.002l-.738-.133zm-2.093-3.026l-.135.738h.002l.133-.738zm-10.026 5.87l-.238.712.006.001.232-.713zm-1.917-.64l-.24.71h.003l.237-.71zm14.823 7.604a6.542 6.542 0 01-6.541 6.541v1.5a8.04 8.04 0 008.041-8.041h-1.5zm-6.541 6.541a6.542 6.542 0 01-6.542-6.541h-1.5c0 4.441 3.6 8.041 8.042 8.041v-1.5zm-6.542-6.541a6.542 6.542 0 016.542-6.542v-1.5a8.042 8.042 0 00-8.042 8.042h1.5zm6.542-6.542a6.542 6.542 0 016.541 6.542h1.5c0-4.442-3.6-8.042-8.041-8.042v1.5zm3.937 6.542a3.938 3.938 0 01-3.937 3.937v1.5a5.438 5.438 0 005.437-5.437h-1.5zm-3.937 3.937a3.937 3.937 0 01-3.938-3.937h-1.5a5.437 5.437 0 005.438 5.437v-1.5zm-3.938-3.937a3.937 3.937 0 013.938-3.938v-1.5a5.437 5.437 0 00-5.438 5.438h1.5zm3.938-3.938a3.937 3.937 0 013.937 3.938h1.5a5.437 5.437 0 00-5.437-5.438v1.5zm-8.252 5.218a8.623 8.623 0 01-7.665-8.572H.25c0 5.214 3.938 9.506 9.001 10.063l.164-1.49zM1.75 10.375a8.626 8.626 0 018.625-8.625V.25C4.784.25.25 4.784.25 10.375h1.5zm8.625-8.625a8.623 8.623 0 018.572 7.665l1.491-.164A10.122 10.122 0 0010.375.25v1.5zm-.896 14.99a6.299 6.299 0 01-5.25-6.212h-1.5a7.799 7.799 0 006.502 7.69l.248-1.479zm-5.25-6.212a6.3 6.3 0 016.3-6.299v-1.5a7.8 7.8 0 00-7.8 7.8h1.5zm6.3-6.299a6.299 6.299 0 016.21 5.25l1.48-.248a7.799 7.799 0 00-7.69-6.502v1.5zM5.067 21.656l.718 1.396 1.334-.687-.719-1.396-1.333.687zm.719 1.396a3.362 3.362 0 004.526 1.453l-.688-1.333a1.86 1.86 0 01-2.505-.808l-1.333.688zm4.526 1.453l.927-.48-.688-1.332-.928.48.69 1.332zm-4.53-.857l.667-2.11-1.43-.451-.667 2.109 1.43.452zm-.278-1.621l2.11.677.458-1.428-2.11-.678-.458 1.429zM23.878 9.53l.282-1.537-1.476-.27-.281 1.537 1.475.27zm.282-1.539a3.353 3.353 0 00-2.698-3.897l-.267 1.476a1.853 1.853 0 011.489 2.155l1.476.266zm-2.697-3.896l-1.026-.188-.27 1.476 1.026.187.27-1.475zm3.07 3.427l-1.82 1.258.853 1.234 1.817-1.255-.852-1.235zm-.776 1.446l-1.255-1.813-1.233.854 1.255 1.813 1.233-.854zm-6.84 1.406v2.604h1.5v-2.604h-1.5zm0 11.98v2.603h1.5v-2.604h-1.5zm5.376-10.375l-1.844 1.844 1.06 1.06 1.844-1.843-1.06-1.06zm-8.47 8.469l-1.843 1.844 1.06 1.06 1.845-1.844-1.061-1.06zm11.135-3.532h-2.604v1.5h2.604v-1.5zm-11.979 0h-2.604v1.5h2.604v-1.5zm-.999-3.876l1.844 1.843 1.06-1.06-1.843-1.844-1.06 1.06zm8.469 8.468l1.844 1.844 1.06-1.06-1.844-1.844-1.06 1.06zm-7.952-10.813a1.902 1.902 0 00-.962-.706l-.465 1.426a.402.402 0 01.204.149l1.223-.87zm-.957-.704l-1.917-.64-.475 1.422 1.916.64.476-1.422zm-1.915-.64a.426.426 0 01-.292-.404h-1.5c0 .828.53 1.561 1.313 1.825l.479-1.421zm-.292-.404V8.62h-1.5v.328h1.5zm0-.328a.42.42 0 01.422-.422v-1.5A1.92 1.92 0 007.833 8.62h1.5zm.422-.422h1.172v-1.5H9.755v1.5zm1.172 0a.42.42 0 01.422.422h1.5a1.92 1.92 0 00-1.922-1.922v1.5zm-3.094 3.948a1.92 1.92 0 001.922 1.922v-1.5a.42.42 0 01-.422-.422h-1.5zM11.1 7.448v-1.76H9.6v1.76h1.5z" fill="#2A577E"/>
</svg>
