<svg xmlns="http://www.w3.org/2000/svg" fill="none" viewBox="0 0 28 27">
  <path d="M18.656 26c4.266 0 7.724-3.406 7.724-7.609 0-4.202-3.458-7.608-7.724-7.608s-7.724 3.406-7.724 7.608c0 4.203 3.458 7.61 7.724 7.61z" fill="#FAC515" stroke="#2A577E" stroke-width="1.5" stroke-miterlimit="10"/>
  <path d="M17 20.022c0 .288.117.564.324.768.207.204.487.319.78.319h1.103c.293 0 .574-.115.78-.319.208-.204.324-.48.324-.768v-.305c0-.228-.073-.451-.209-.636a1.103 1.103 0 00-.547-.396l-1.799-.587a1.103 1.103 0 01-.547-.396 1.076 1.076 0 01-.209-.637v-.304c0-.288.117-.565.324-.769a1.11 1.11 0 01.78-.318h1.103c.293 0 .574.114.78.318.208.204.324.48.324.769m-1.655-1.087v-1.63m0 7.065v1.63m-4.966-4.347h1.103m7.725 0h1.103M9.828 20.506a10.012 10.012 0 01-5.083-2.07 9.787 9.787 0 01-3.185-4.418 9.643 9.643 0 01-.31-5.41 9.743 9.743 0 012.66-4.742 9.974 9.974 0 014.814-2.62 10.075 10.075 0 015.492.305A9.93 9.93 0 0118.7 4.69a9.705 9.705 0 012.102 5.007" stroke="#2A577E" stroke-width="1.5" stroke-miterlimit="10"/>
  <path d="M9.828 17.218a6.665 6.665 0 01-3.235-1.504 6.515 6.515 0 01-1.969-2.943 6.428 6.428 0 01-.127-3.521 6.497 6.497 0 011.75-3.073 6.648 6.648 0 013.12-1.727 6.717 6.717 0 013.575.123A6.63 6.63 0 0115.93 6.51a6.48 6.48 0 011.53 3.186M10.931 1v3.26m7.024-.396l-2.34 2.305M3.908 17.7l2.34-2.303M1 10.783h3.31m-.402-6.919l2.34 2.305m-.232 16.027l.761 1.456c.165.32.393.603.67.835a2.77 2.77 0 002.016.639 2.8 2.8 0 001.038-.294l.982-.5" stroke="#2A577E" stroke-width="1.5" stroke-miterlimit="10"/>
  <path d="M5.31 24.397l.705-2.201 2.235.706M24.454 9.76l.298-1.63a2.685 2.685 0 00-.441-2.027 2.762 2.762 0 00-1.766-1.13l-1.103-.196" stroke="#2A577E" stroke-width="1.5" stroke-miterlimit="10"/>
  <path d="M26.38 8.451l-1.925 1.315-1.33-1.896" stroke="#2A577E" stroke-width="1.5" stroke-miterlimit="10"/>
</svg>
